<svg xmlns="http://www.w3.org/2000/svg" viewBox="0 0 576 512"><!--! Font Awesome Pro 6.4.2 by @fontawesome - https://fontawesome.com License - https://fontawesome.com/license (Commercial License) Copyright 2023 Fonticons, Inc.--><path d="M528 448V64c0-8.8-7.2-16-16-16s-16 7.2-16 16v384c0 8.8 7.2 16 16 16s16-7.2 16-16zM448 64c0-35.3 28.7-64 64-64s64 28.7 64 64v384c0 35.3-28.7 64-64 64s-64-28.7-64-64V64zm-72 384V192c0-8.8-7.2-16-16-16s-16 7.2-16 16v256c0 8.8 7.2 16 16 16s16-7.2 16-16zm-80-256c0-35.3 28.7-64 64-64s64 28.7 64 64v256c0 35.3-28.7 64-64 64s-64-28.7-64-64V192zm-88 272c8.8 0 16-7.2 16-16V320c0-8.8-7.2-16-16-16s-16 7.2-16 16v128c0 8.8 7.2 16 16 16zm0-208c35.3 0 64 28.7 64 64v128c0 35.3-28.7 64-64 64s-64-28.7-64-64V320c0-35.3 28.7-64 64-64zM64 464a16 16 0 1 0 0-32 16 16 0 1 0 0 32zm64-16a64 64 0 1 1-128 0 64 64 0 1 1 128 0z" fill="#fff"/></svg>